<?xml version="1.0" encoding="UTF-8" standalone="no"?>
<!DOCTYPE svg PUBLIC "-//W3C//DTD SVG 1.0//EN"
 "http://www.w3.org/TR/2001/REC-SVG-20010904/DTD/svg10.dtd" [
 <!ATTLIST svg xmlns:xlink CDATA #FIXED "http://www.w3.org/1999/xlink">
]>
<!-- Generated by Graphviz version 2.20.2 (Tue Mar &#160;2 21:46:26 UTC 2010)
     For user: (root) root -->
<!-- Title: G Pages: 1 -->
<svg width="390pt" height="916pt"
 viewBox="0.00 0.00 390.00 916.00" xmlns="http://www.w3.org/2000/svg" xmlns:xlink="http://www.w3.org/1999/xlink">
<g id="graph0" class="graph" transform="scale(1 1) rotate(0) translate(4 912)">
<title>G</title>
<polygon style="fill:white;stroke:white;" points="-4,4 -4,-912 386,-912 386,4 -4,4"/>
<g id="cluster2" class="cluster"><title>cluster_nuggets</title>
<polyline style="fill:none;stroke:gray;" points="20,-16 362,-16 "/>
<path style="fill:none;stroke:gray;" d="M362,-16C368,-16 374,-22 374,-28"/>
<polyline style="fill:none;stroke:gray;" points="374,-28 374,-888 "/>
<path style="fill:none;stroke:gray;" d="M374,-888C374,-894 368,-900 362,-900"/>
<polyline style="fill:none;stroke:gray;" points="362,-900 20,-900 "/>
<path style="fill:none;stroke:gray;" d="M20,-900C14,-900 8,-894 8,-888"/>
<polyline style="fill:none;stroke:gray;" points="8,-888 8,-28 "/>
<path style="fill:none;stroke:gray;" d="M8,-28C8,-22 14,-16 20,-16"/>
<text text-anchor="middle" x="191" y="-886.1" style="font-family:Times New Roman;font-size:11.00;fill:gray;">nuggets</text>
</g>
<!-- \\nuggets\\XMLView -->
<g id="node2" class="node"><title>\\nuggets\\XMLView</title>
<a xlink:href="core.View.XMLView.html" xlink:title="XMLView" target="_parent">
<polygon style="fill:none;stroke:black;" points="314,-870 252,-870 252,-834 314,-834 314,-870"/>
<text text-anchor="middle" x="283" y="-849.1" style="font-family:Courier;font-size:11.00;">XMLView</text>
</a>
</g>
<!-- \\nuggets\\View -->
<g id="node4" class="node"><title>\\nuggets\\View</title>
<a xlink:href="core.View.View.html" xlink:title="View" target="_parent">
<polygon style="fill:none;stroke:black;" points="99,-816 45,-816 45,-780 99,-780 99,-816"/>
<text text-anchor="middle" x="72" y="-795.1" style="font-family:Courier;font-size:11.00;">View</text>
</a>
</g>
<!-- \\nuggets\\XMLView&#45;&gt;\\nuggets\\View -->
<g id="edge3" class="edge"><title>\\nuggets\\XMLView&#45;&gt;\\nuggets\\View</title>
<path style="fill:none;stroke:black;" d="M251,-844C213,-834 149,-818 109,-807"/>
<polygon style="fill:none;stroke:black;" points="109.492,-803.529 99,-805 108.119,-810.393 109.492,-803.529"/>
</g>
<!-- \\nuggets\\StyleParser -->
<g id="node3" class="node"><title>\\nuggets\\StyleParser</title>
<a xlink:href="core.View.StyleParser.html" xlink:title="StyleParser" target="_parent">
<polygon style="fill:none;stroke:black;" points="328,-816 238,-816 238,-780 328,-780 328,-816"/>
<text text-anchor="middle" x="283" y="-795.1" style="font-family:Courier;font-size:11.00;">StyleParser</text>
</a>
</g>
<!-- \\nuggets\\HTMLView -->
<g id="node5" class="node"><title>\\nuggets\\HTMLView</title>
<a xlink:href="core.View.HTMLView.html" xlink:title="HTMLView" target="_parent">
<polygon style="fill:none;stroke:black;" points="318,-762 248,-762 248,-726 318,-726 318,-762"/>
<text text-anchor="middle" x="283" y="-741.1" style="font-family:Courier;font-size:11.00;">HTMLView</text>
</a>
</g>
<!-- \\nuggets\\HTMLView&#45;&gt;\\nuggets\\View -->
<g id="edge5" class="edge"><title>\\nuggets\\HTMLView&#45;&gt;\\nuggets\\View</title>
<path style="fill:none;stroke:black;" d="M248,-753C209,-762 148,-778 109,-788"/>
<polygon style="fill:none;stroke:black;" points="107.573,-784.774 99,-791 109.584,-791.479 107.573,-784.774"/>
</g>
<!-- \\nuggets\\Dispatcher -->
<g id="node6" class="node"><title>\\nuggets\\Dispatcher</title>
<a xlink:href="core.Dispatcher.html" xlink:title="Dispatcher" target="_parent">
<polygon style="fill:none;stroke:black;" points="325,-708 241,-708 241,-672 325,-672 325,-708"/>
<text text-anchor="middle" x="283" y="-687.1" style="font-family:Courier;font-size:11.00;">Dispatcher</text>
</a>
</g>
<!-- \\nuggets\\HTMLHelper -->
<g id="node7" class="node"><title>\\nuggets\\HTMLHelper</title>
<a xlink:href="core.Helper.HTMLHelper.html" xlink:title="HTMLHelper" target="_parent">
<polygon style="fill:none;stroke:black;" points="325,-654 241,-654 241,-618 325,-618 325,-654"/>
<text text-anchor="middle" x="283" y="-633.1" style="font-family:Courier;font-size:11.00;">HTMLHelper</text>
</a>
</g>
<!-- \\nuggets\\Helper -->
<g id="node9" class="node"><title>\\nuggets\\Helper</title>
<a xlink:href="core.Helper.Helper.html" xlink:title="Helper" target="_parent">
<polygon style="fill:none;stroke:black;" points="100,-627 44,-627 44,-591 100,-591 100,-627"/>
<text text-anchor="middle" x="72" y="-606.1" style="font-family:Courier;font-size:11.00;">Helper</text>
</a>
</g>
<!-- \\nuggets\\HTMLHelper&#45;&gt;\\nuggets\\Helper -->
<g id="edge7" class="edge"><title>\\nuggets\\HTMLHelper&#45;&gt;\\nuggets\\Helper</title>
<path style="fill:none;stroke:black;" d="M241,-631C203,-626 148,-619 111,-614"/>
<polygon style="fill:none;stroke:black;" points="111.299,-610.512 101,-613 110.602,-617.478 111.299,-610.512"/>
</g>
<!-- \\nuggets\\CSSHelper -->
<g id="node8" class="node"><title>\\nuggets\\CSSHelper</title>
<a xlink:href="core.Helper.CSSHelper.html" xlink:title="CSSHelper" target="_parent">
<polygon style="fill:none;stroke:black;" points="321,-600 245,-600 245,-564 321,-564 321,-600"/>
<text text-anchor="middle" x="283" y="-579.1" style="font-family:Courier;font-size:11.00;">CSSHelper</text>
</a>
</g>
<!-- \\nuggets\\CSSHelper&#45;&gt;\\nuggets\\Helper -->
<g id="edge9" class="edge"><title>\\nuggets\\CSSHelper&#45;&gt;\\nuggets\\Helper</title>
<path style="fill:none;stroke:black;" d="M244,-587C206,-592 149,-599 111,-604"/>
<polygon style="fill:none;stroke:black;" points="110.602,-600.522 101,-605 111.299,-607.488 110.602,-600.522"/>
</g>
<!-- \\nuggets\\Command -->
<g id="node10" class="node"><title>\\nuggets\\Command</title>
<a xlink:href="core.Command.html" xlink:title="Command" target="_parent">
<polygon style="fill:none;stroke:black;" points="314,-546 252,-546 252,-510 314,-510 314,-546"/>
<text text-anchor="middle" x="283" y="-525.1" style="font-family:Courier;font-size:11.00;">Command</text>
</a>
</g>
<!-- \\nuggets\\Model -->
<g id="node11" class="node"><title>\\nuggets\\Model</title>
<a xlink:href="core.Model.Model.html" xlink:title="Model" target="_parent">
<polygon style="fill:none;stroke:black;" points="99,-492 45,-492 45,-456 99,-456 99,-492"/>
<text text-anchor="middle" x="72" y="-471.1" style="font-family:Courier;font-size:11.00;">Model</text>
</a>
</g>
<!-- \\nuggets\\DefaultModel -->
<g id="node12" class="node"><title>\\nuggets\\DefaultModel</title>
<a xlink:href="core.Model.DefaultModel.html" xlink:title="DefaultModel" target="_parent">
<polygon style="fill:none;stroke:black;" points="331,-492 235,-492 235,-456 331,-456 331,-492"/>
<text text-anchor="middle" x="283" y="-471.1" style="font-family:Courier;font-size:11.00;">DefaultModel</text>
</a>
</g>
<!-- \\nuggets\\DefaultModel&#45;&gt;\\nuggets\\Model -->
<g id="edge11" class="edge"><title>\\nuggets\\DefaultModel&#45;&gt;\\nuggets\\Model</title>
<path style="fill:none;stroke:black;" d="M234,-474C196,-474 144,-474 109,-474"/>
<polygon style="fill:none;stroke:black;" points="109,-470.5 99,-474 109,-477.5 109,-470.5"/>
</g>
<!-- \\nuggets\\Config -->
<g id="node13" class="node"><title>\\nuggets\\Config</title>
<a xlink:href="core.Config.html" xlink:title="Config" target="_parent">
<polygon style="fill:none;stroke:black;" points="311,-438 255,-438 255,-402 311,-402 311,-438"/>
<text text-anchor="middle" x="283" y="-417.1" style="font-family:Courier;font-size:11.00;">Config</text>
</a>
</g>
<!-- \\nuggets\\PasswordAuthentication -->
<g id="node14" class="node"><title>\\nuggets\\PasswordAuthentication</title>
<a xlink:href="core.Authentication.PasswordAuthentication.html" xlink:title="PasswordAuthentication" target="_parent">
<polygon style="fill:none;stroke:black;" points="365,-384 201,-384 201,-348 365,-348 365,-384"/>
<text text-anchor="middle" x="283" y="-363.1" style="font-family:Courier;font-size:11.00;">PasswordAuthentication</text>
</a>
</g>
<!-- \\nuggets\\Authentication -->
<g id="node15" class="node"><title>\\nuggets\\Authentication</title>
<a xlink:href="core.Authentication.Authentication.html" xlink:title="Authentication" target="_parent">
<polygon style="fill:none;stroke:black;" points="127,-384 17,-384 17,-348 127,-348 127,-384"/>
<text text-anchor="middle" x="72" y="-363.1" style="font-family:Courier;font-size:11.00;">Authentication</text>
</a>
</g>
<!-- \\nuggets\\PasswordAuthentication&#45;&gt;\\nuggets\\Authentication -->
<g id="edge13" class="edge"><title>\\nuggets\\PasswordAuthentication&#45;&gt;\\nuggets\\Authentication</title>
<path style="fill:none;stroke:black;" d="M200,-366C180,-366 158,-366 138,-366"/>
<polygon style="fill:none;stroke:black;" points="138,-362.5 128,-366 138,-369.5 138,-362.5"/>
</g>
<!-- \\nuggets\\Registry -->
<g id="node16" class="node"><title>\\nuggets\\Registry</title>
<a xlink:href="core.Registry.html" xlink:title="Registry" target="_parent">
<polygon style="fill:none;stroke:black;" points="318,-330 248,-330 248,-294 318,-294 318,-330"/>
<text text-anchor="middle" x="283" y="-309.1" style="font-family:Courier;font-size:11.00;">Registry</text>
</a>
</g>
<!-- \\nuggets\\Session -->
<g id="node17" class="node"><title>\\nuggets\\Session</title>
<a xlink:href="core.Session.html" xlink:title="Session" target="_parent">
<polygon style="fill:none;stroke:black;" points="314,-276 252,-276 252,-240 314,-240 314,-276"/>
<text text-anchor="middle" x="283" y="-255.1" style="font-family:Courier;font-size:11.00;">Session</text>
</a>
</g>
<!-- \\nuggets\\Engine -->
<g id="node18" class="node"><title>\\nuggets\\Engine</title>
<a xlink:href="core.Engine.html" xlink:title="Engine" target="_parent">
<polygon style="fill:none;stroke:black;" points="311,-222 255,-222 255,-186 311,-186 311,-222"/>
<text text-anchor="middle" x="283" y="-201.1" style="font-family:Courier;font-size:11.00;">Engine</text>
</a>
</g>
<!-- \\nuggets\\Mailer -->
<g id="node19" class="node"><title>\\nuggets\\Mailer</title>
<a xlink:href="core.Mailer.Mailer.html" xlink:title="Mailer" target="_parent">
<polygon style="fill:none;stroke:black;" points="311,-168 255,-168 255,-132 311,-132 311,-168"/>
<text text-anchor="middle" x="283" y="-147.1" style="font-family:Courier;font-size:11.00;">Mailer</text>
</a>
</g>
<!-- \\nuggets\\DefaultController -->
<g id="node20" class="node"><title>\\nuggets\\DefaultController</title>
<a xlink:href="core.Controller.DefaultController.html" xlink:title="DefaultController" target="_parent">
<polygon style="fill:none;stroke:black;" points="348,-114 218,-114 218,-78 348,-78 348,-114"/>
<text text-anchor="middle" x="283" y="-93.1" style="font-family:Courier;font-size:11.00;">DefaultController</text>
</a>
</g>
<!-- \\nuggets\\Controller -->
<g id="node21" class="node"><title>\\nuggets\\Controller</title>
<a xlink:href="core.Controller.Controller.html" xlink:title="Controller" target="_parent">
<polygon style="fill:none;stroke:black;" points="114,-114 30,-114 30,-78 114,-78 114,-114"/>
<text text-anchor="middle" x="72" y="-93.1" style="font-family:Courier;font-size:11.00;">Controller</text>
</a>
</g>
<!-- \\nuggets\\DefaultController&#45;&gt;\\nuggets\\Controller -->
<g id="edge15" class="edge"><title>\\nuggets\\DefaultController&#45;&gt;\\nuggets\\Controller</title>
<path style="fill:none;stroke:black;" d="M217,-96C187,-96 152,-96 124,-96"/>
<polygon style="fill:none;stroke:black;" points="124,-92.5001 114,-96 124,-99.5001 124,-92.5001"/>
</g>
<!-- \\nuggets\\Database -->
<g id="node22" class="node"><title>\\nuggets\\Database</title>
<a xlink:href="core.Database.html" xlink:title="Database" target="_parent">
<polygon style="fill:none;stroke:black;" points="318,-60 248,-60 248,-24 318,-24 318,-60"/>
<text text-anchor="middle" x="283" y="-39.1" style="font-family:Courier;font-size:11.00;">Database</text>
</a>
</g>
</g>
</svg>
