<?xml version="1.0" encoding="UTF-8" standalone="no"?>
<!DOCTYPE svg PUBLIC "-//W3C//DTD SVG 1.0//EN"
 "http://www.w3.org/TR/2001/REC-SVG-20010904/DTD/svg10.dtd" [
 <!ATTLIST svg xmlns:xlink CDATA #FIXED "http://www.w3.org/1999/xlink">
]>
<!-- Generated by Graphviz version 2.20.2 (Tue Mar &#160;2 21:46:26 UTC 2010)
     For user: (root) root -->
<!-- Title: G Pages: 1 -->
<svg width="390pt" height="1052pt"
 viewBox="0.00 0.00 390.00 1052.00" xmlns="http://www.w3.org/2000/svg" xmlns:xlink="http://www.w3.org/1999/xlink">
<g id="graph0" class="graph" transform="scale(1 1) rotate(0) translate(4 1048)">
<title>G</title>
<polygon style="fill:white;stroke:white;" points="-4,4 -4,-1048 386,-1048 386,4 -4,4"/>
<g id="cluster2" class="cluster"><title>cluster_global</title>
<polyline style="fill:none;stroke:gray;" points="218,-16 348,-16 "/>
<path style="fill:none;stroke:gray;" d="M348,-16C354,-16 360,-22 360,-28"/>
<polyline style="fill:none;stroke:gray;" points="360,-28 360,-186 "/>
<path style="fill:none;stroke:gray;" d="M360,-186C360,-192 354,-198 348,-198"/>
<polyline style="fill:none;stroke:gray;" points="348,-198 218,-198 "/>
<path style="fill:none;stroke:gray;" d="M218,-198C212,-198 206,-192 206,-186"/>
<polyline style="fill:none;stroke:gray;" points="206,-186 206,-28 "/>
<path style="fill:none;stroke:gray;" d="M206,-28C206,-22 212,-16 218,-16"/>
<text text-anchor="middle" x="283" y="-184.1" style="font-family:Times New Roman;font-size:11.00;fill:gray;">global</text>
</g>
<g id="cluster3" class="cluster"><title>cluster_nuggets</title>
<polyline style="fill:none;stroke:gray;" points="20,-206 362,-206 "/>
<path style="fill:none;stroke:gray;" d="M362,-206C368,-206 374,-212 374,-218"/>
<polyline style="fill:none;stroke:gray;" points="374,-218 374,-1024 "/>
<path style="fill:none;stroke:gray;" d="M374,-1024C374,-1030 368,-1036 362,-1036"/>
<polyline style="fill:none;stroke:gray;" points="362,-1036 20,-1036 "/>
<path style="fill:none;stroke:gray;" d="M20,-1036C14,-1036 8,-1030 8,-1024"/>
<polyline style="fill:none;stroke:gray;" points="8,-1024 8,-218 "/>
<path style="fill:none;stroke:gray;" d="M8,-218C8,-212 14,-206 20,-206"/>
<text text-anchor="middle" x="191" y="-1022.1" style="font-family:Times New Roman;font-size:11.00;fill:gray;">nuggets</text>
</g>
<!-- \\qqUploadedFileXhr -->
<g id="node2" class="node"><title>\\qqUploadedFileXhr</title>
<a xlink:href="vendor.valums.server.php.html" xlink:title="qqUploadedFileXhr" target="_parent">
<polygon style="fill:none;stroke:black;" points="348,-168 218,-168 218,-132 348,-132 348,-168"/>
<text text-anchor="middle" x="283" y="-147.1" style="font-family:Courier;font-size:11.00;">qqUploadedFileXhr</text>
</a>
</g>
<!-- \\qqUploadedFileForm -->
<g id="node3" class="node"><title>\\qqUploadedFileForm</title>
<a xlink:href="vendor.valums.server.php.html" xlink:title="qqUploadedFileForm" target="_parent">
<polygon style="fill:none;stroke:black;" points="352,-114 214,-114 214,-78 352,-78 352,-114"/>
<text text-anchor="middle" x="283" y="-93.1" style="font-family:Courier;font-size:11.00;">qqUploadedFileForm</text>
</a>
</g>
<!-- \\qqFileUploader -->
<g id="node4" class="node"><title>\\qqFileUploader</title>
<a xlink:href="vendor.valums.server.php.html" xlink:title="qqFileUploader" target="_parent">
<polygon style="fill:none;stroke:black;" points="338,-60 228,-60 228,-24 338,-24 338,-60"/>
<text text-anchor="middle" x="283" y="-39.1" style="font-family:Courier;font-size:11.00;">qqFileUploader</text>
</a>
</g>
<!-- \\nuggets\\XMLView -->
<g id="node6" class="node"><title>\\nuggets\\XMLView</title>
<a xlink:href="core.view.XMLView.html" xlink:title="XMLView" target="_parent">
<polygon style="fill:none;stroke:black;" points="314,-1006 252,-1006 252,-970 314,-970 314,-1006"/>
<text text-anchor="middle" x="283" y="-985.1" style="font-family:Courier;font-size:11.00;">XMLView</text>
</a>
</g>
<!-- \\nuggets\\View -->
<g id="node7" class="node"><title>\\nuggets\\View</title>
<a xlink:href="core.view.View.html" xlink:title="View" target="_parent">
<polygon style="fill:none;stroke:black;" points="99,-979 45,-979 45,-943 99,-943 99,-979"/>
<text text-anchor="middle" x="72" y="-958.1" style="font-family:Courier;font-size:11.00;">View</text>
</a>
</g>
<!-- \\nuggets\\XMLView&#45;&gt;\\nuggets\\View -->
<g id="edge4" class="edge"><title>\\nuggets\\XMLView&#45;&gt;\\nuggets\\View</title>
<path style="fill:none;stroke:black;" d="M251,-984C213,-978 149,-970 109,-965"/>
<polygon style="fill:none;stroke:black;" points="109.299,-961.512 99,-964 108.602,-968.478 109.299,-961.512"/>
</g>
<!-- \\nuggets\\HTMLView -->
<g id="node8" class="node"><title>\\nuggets\\HTMLView</title>
<a xlink:href="core.view.HTMLView.html" xlink:title="HTMLView" target="_parent">
<polygon style="fill:none;stroke:black;" points="318,-952 248,-952 248,-916 318,-916 318,-952"/>
<text text-anchor="middle" x="283" y="-931.1" style="font-family:Courier;font-size:11.00;">HTMLView</text>
</a>
</g>
<!-- \\nuggets\\HTMLView&#45;&gt;\\nuggets\\View -->
<g id="edge6" class="edge"><title>\\nuggets\\HTMLView&#45;&gt;\\nuggets\\View</title>
<path style="fill:none;stroke:black;" d="M248,-939C209,-944 148,-952 109,-957"/>
<polygon style="fill:none;stroke:black;" points="108.602,-953.522 99,-958 109.299,-960.488 108.602,-953.522"/>
</g>
<!-- \\nuggets\\Mailer -->
<g id="node9" class="node"><title>\\nuggets\\Mailer</title>
<a xlink:href="core.mailer.Mailer.html" xlink:title="Mailer" target="_parent">
<polygon style="fill:none;stroke:black;" points="311,-898 255,-898 255,-862 311,-862 311,-898"/>
<text text-anchor="middle" x="283" y="-877.1" style="font-family:Courier;font-size:11.00;">Mailer</text>
</a>
</g>
<!-- \\nuggets\\Model -->
<g id="node10" class="node"><title>\\nuggets\\Model</title>
<a xlink:href="core.model.Model.html" xlink:title="Model" target="_parent">
<polygon style="fill:none;stroke:black;" points="99,-844 45,-844 45,-808 99,-808 99,-844"/>
<text text-anchor="middle" x="72" y="-823.1" style="font-family:Courier;font-size:11.00;">Model</text>
</a>
</g>
<!-- \\nuggets\\DefaultModel -->
<g id="node11" class="node"><title>\\nuggets\\DefaultModel</title>
<a xlink:href="core.model.DefaultModel.html" xlink:title="DefaultModel" target="_parent">
<polygon style="fill:none;stroke:black;" points="331,-844 235,-844 235,-808 331,-808 331,-844"/>
<text text-anchor="middle" x="283" y="-823.1" style="font-family:Courier;font-size:11.00;">DefaultModel</text>
</a>
</g>
<!-- \\nuggets\\DefaultModel&#45;&gt;\\nuggets\\Model -->
<g id="edge8" class="edge"><title>\\nuggets\\DefaultModel&#45;&gt;\\nuggets\\Model</title>
<path style="fill:none;stroke:black;" d="M234,-826C196,-826 144,-826 109,-826"/>
<polygon style="fill:none;stroke:black;" points="109,-822.5 99,-826 109,-829.5 109,-822.5"/>
</g>
<!-- \\nuggets\\DefaultController -->
<g id="node12" class="node"><title>\\nuggets\\DefaultController</title>
<a xlink:href="core.controller.DefaultController.html" xlink:title="DefaultController" target="_parent">
<polygon style="fill:none;stroke:black;" points="348,-790 218,-790 218,-754 348,-754 348,-790"/>
<text text-anchor="middle" x="283" y="-769.1" style="font-family:Courier;font-size:11.00;">DefaultController</text>
</a>
</g>
<!-- \\nuggets\\Controller -->
<g id="node13" class="node"><title>\\nuggets\\Controller</title>
<a xlink:href="core.controller.Controller.html" xlink:title="Controller" target="_parent">
<polygon style="fill:none;stroke:black;" points="114,-790 30,-790 30,-754 114,-754 114,-790"/>
<text text-anchor="middle" x="72" y="-769.1" style="font-family:Courier;font-size:11.00;">Controller</text>
</a>
</g>
<!-- \\nuggets\\DefaultController&#45;&gt;\\nuggets\\Controller -->
<g id="edge10" class="edge"><title>\\nuggets\\DefaultController&#45;&gt;\\nuggets\\Controller</title>
<path style="fill:none;stroke:black;" d="M217,-772C187,-772 152,-772 124,-772"/>
<polygon style="fill:none;stroke:black;" points="124,-768.5 114,-772 124,-775.5 124,-768.5"/>
</g>
<!-- \\nuggets\\Dispatcher -->
<g id="node14" class="node"><title>\\nuggets\\Dispatcher</title>
<a xlink:href="core.Dispatcher.html" xlink:title="Dispatcher" target="_parent">
<polygon style="fill:none;stroke:black;" points="325,-736 241,-736 241,-700 325,-700 325,-736"/>
<text text-anchor="middle" x="283" y="-715.1" style="font-family:Courier;font-size:11.00;">Dispatcher</text>
</a>
</g>
<!-- \\nuggets\\Command -->
<g id="node15" class="node"><title>\\nuggets\\Command</title>
<a xlink:href="core.Command.html" xlink:title="Command" target="_parent">
<polygon style="fill:none;stroke:black;" points="314,-682 252,-682 252,-646 314,-646 314,-682"/>
<text text-anchor="middle" x="283" y="-661.1" style="font-family:Courier;font-size:11.00;">Command</text>
</a>
</g>
<!-- \\nuggets\\Config -->
<g id="node16" class="node"><title>\\nuggets\\Config</title>
<a xlink:href="core.Config.html" xlink:title="Config" target="_parent">
<polygon style="fill:none;stroke:black;" points="311,-628 255,-628 255,-592 311,-592 311,-628"/>
<text text-anchor="middle" x="283" y="-607.1" style="font-family:Courier;font-size:11.00;">Config</text>
</a>
</g>
<!-- \\nuggets\\PasswordAuthentication -->
<g id="node17" class="node"><title>\\nuggets\\PasswordAuthentication</title>
<a xlink:href="core.Authentication.PasswordAuthentication.html" xlink:title="PasswordAuthentication" target="_parent">
<polygon style="fill:none;stroke:black;" points="365,-574 201,-574 201,-538 365,-538 365,-574"/>
<text text-anchor="middle" x="283" y="-553.1" style="font-family:Courier;font-size:11.00;">PasswordAuthentication</text>
</a>
</g>
<!-- \\nuggets\\Authentication -->
<g id="node18" class="node"><title>\\nuggets\\Authentication</title>
<a xlink:href="core.Authentication.Authentication.html" xlink:title="Authentication" target="_parent">
<polygon style="fill:none;stroke:black;" points="127,-574 17,-574 17,-538 127,-538 127,-574"/>
<text text-anchor="middle" x="72" y="-553.1" style="font-family:Courier;font-size:11.00;">Authentication</text>
</a>
</g>
<!-- \\nuggets\\PasswordAuthentication&#45;&gt;\\nuggets\\Authentication -->
<g id="edge12" class="edge"><title>\\nuggets\\PasswordAuthentication&#45;&gt;\\nuggets\\Authentication</title>
<path style="fill:none;stroke:black;" d="M200,-556C180,-556 158,-556 138,-556"/>
<polygon style="fill:none;stroke:black;" points="138,-552.5 128,-556 138,-559.5 138,-552.5"/>
</g>
<!-- \\nuggets\\Registry -->
<g id="node19" class="node"><title>\\nuggets\\Registry</title>
<a xlink:href="core.Registry.html" xlink:title="Registry" target="_parent">
<polygon style="fill:none;stroke:black;" points="318,-520 248,-520 248,-484 318,-484 318,-520"/>
<text text-anchor="middle" x="283" y="-499.1" style="font-family:Courier;font-size:11.00;">Registry</text>
</a>
</g>
<!-- \\nuggets\\Session -->
<g id="node20" class="node"><title>\\nuggets\\Session</title>
<a xlink:href="core.Session.html" xlink:title="Session" target="_parent">
<polygon style="fill:none;stroke:black;" points="314,-466 252,-466 252,-430 314,-430 314,-466"/>
<text text-anchor="middle" x="283" y="-445.1" style="font-family:Courier;font-size:11.00;">Session</text>
</a>
</g>
<!-- \\nuggets\\Engine -->
<g id="node21" class="node"><title>\\nuggets\\Engine</title>
<a xlink:href="core.Engine.html" xlink:title="Engine" target="_parent">
<polygon style="fill:none;stroke:black;" points="311,-412 255,-412 255,-376 311,-376 311,-412"/>
<text text-anchor="middle" x="283" y="-391.1" style="font-family:Courier;font-size:11.00;">Engine</text>
</a>
</g>
<!-- \\nuggets\\Database -->
<g id="node22" class="node"><title>\\nuggets\\Database</title>
<a xlink:href="core.Database.html" xlink:title="Database" target="_parent">
<polygon style="fill:none;stroke:black;" points="318,-358 248,-358 248,-322 318,-322 318,-358"/>
<text text-anchor="middle" x="283" y="-337.1" style="font-family:Courier;font-size:11.00;">Database</text>
</a>
</g>
<!-- \\nuggets\\HTMLHelper -->
<g id="node23" class="node"><title>\\nuggets\\HTMLHelper</title>
<a xlink:href="core.helper.HTMLHelper.html" xlink:title="HTMLHelper" target="_parent">
<polygon style="fill:none;stroke:black;" points="325,-304 241,-304 241,-268 325,-268 325,-304"/>
<text text-anchor="middle" x="283" y="-283.1" style="font-family:Courier;font-size:11.00;">HTMLHelper</text>
</a>
</g>
<!-- \\nuggets\\Helper -->
<g id="node25" class="node"><title>\\nuggets\\Helper</title>
<a xlink:href="core.helper.Helper.html" xlink:title="Helper" target="_parent">
<polygon style="fill:none;stroke:black;" points="100,-277 44,-277 44,-241 100,-241 100,-277"/>
<text text-anchor="middle" x="72" y="-256.1" style="font-family:Courier;font-size:11.00;">Helper</text>
</a>
</g>
<!-- \\nuggets\\HTMLHelper&#45;&gt;\\nuggets\\Helper -->
<g id="edge14" class="edge"><title>\\nuggets\\HTMLHelper&#45;&gt;\\nuggets\\Helper</title>
<path style="fill:none;stroke:black;" d="M241,-281C203,-276 148,-269 111,-264"/>
<polygon style="fill:none;stroke:black;" points="111.299,-260.512 101,-263 110.602,-267.478 111.299,-260.512"/>
</g>
<!-- \\nuggets\\CSSHelper -->
<g id="node24" class="node"><title>\\nuggets\\CSSHelper</title>
<a xlink:href="core.helper.CSSHelper.html" xlink:title="CSSHelper" target="_parent">
<polygon style="fill:none;stroke:black;" points="321,-250 245,-250 245,-214 321,-214 321,-250"/>
<text text-anchor="middle" x="283" y="-229.1" style="font-family:Courier;font-size:11.00;">CSSHelper</text>
</a>
</g>
<!-- \\nuggets\\CSSHelper&#45;&gt;\\nuggets\\Helper -->
<g id="edge16" class="edge"><title>\\nuggets\\CSSHelper&#45;&gt;\\nuggets\\Helper</title>
<path style="fill:none;stroke:black;" d="M244,-237C206,-242 149,-249 111,-254"/>
<polygon style="fill:none;stroke:black;" points="110.602,-250.522 101,-255 111.299,-257.488 110.602,-250.522"/>
</g>
</g>
</svg>
